# xmcd
#
# Track frame offsets: 
#        150
#        19813
#        34658
#        46868
#        62028
#        75226
#        87259
#        101438
#        114343
#        131707
#        144470
#        158339
#        173699
#        182868
#        196492
#        210391
#        223474
#        237531
#        248501
#        256801
#        268408
#        281720
#        293670
#        304502
#        317002
#
# Disc length: 4414 seconds
#
# Revision: 0
# Processed by: cddbd v1.5.1PL2 Copyright (c) Steve Scherf et al.
# Submitted via: ExactAudioCopy v0.95b4
#
DISCID=5e113c19
DTITLE=Various Artist - Golden Accordion
DYEAR=1998
DGENRE=
TTITLE0=I just called to say i love you
TTITLE1=Theme From "The Godfather"
TTITLE2=I Love Paris
TTITLE3=Moonlight Shadow
TTITLE4=Spanosh Eyes
TTITLE5=Y Viva Espana
TTITLE6=The Last Waltz
TTITLE7=Amapola
TTITLE8=La Mama
TTITLE9=Noche D'amour
TTITLE10=La Vie Bohemie
TTITLE11=Weekend Musette
TTITLE12=Rue Aux Flers
TTITLE13=Je T'Aime Mariette
TTITLE14=Valse des Copains
TTITLE15=Pigalle
TTITLE16=El Paso Triblq
TTITLE17=A Paris
TTITLE18=Domino
TTITLE19=Sous Le Ciel De Paris
TTITLE20=Hymne A L'amour
TTITLE21=Le Gamin De Paris
TTITLE22=Trois Fois Merci
TTITLE23=Serenade Portugaise
TTITLE24=La Mer
EXTD=
EXTT0=
EXTT1=
EXTT2=
EXTT3=
EXTT4=
EXTT5=
EXTT6=
EXTT7=
EXTT8=
EXTT9=
EXTT10=
EXTT11=
EXTT12=
EXTT13=
EXTT14=
EXTT15=
EXTT16=
EXTT17=
EXTT18=
EXTT19=
EXTT20=
EXTT21=
EXTT22=
EXTT23=
EXTT24=
PLAYORDER=
